<?xml version="1.0" encoding="utf-8"?>
<!-- Generator: Adobe Illustrator 21.0.2, SVG Export Plug-In . SVG Version: 6.00 Build 0)  -->
<svg version="1.1" id="Capa_1" xmlns="http://www.w3.org/2000/svg" xmlns:xlink="http://www.w3.org/1999/xlink" x="0px" y="0px"
	 viewBox="0 0 511 511" style="enable-background:new 0 0 511 511;" xml:space="preserve">
<style type="text/css">
	.st0{fill:#FFFFFF;}
</style>
<g>
	<path class="st0" d="M439.9,162.2c-17.5-18-41.7-29.5-72.1-34.1c-28.3-4.3-49.6,1.9-70.2,7.9c-11.7,3.4-22.8,6.7-34.7,7.7
		c-0.1-6.5-0.4-14.8-0.9-24.1c1.1,0,2.1,0.1,3.2,0.1c3.3,0,6.7-0.2,10-0.6c21.8-2.8,43.3-13.8,60.6-31.1s28.3-38.8,31.1-60.6
		c0.9-6.7,0.9-13.5,0-20.2c-0.4-3.4-3.1-6-6.5-6.5c-6.7-0.9-13.5-0.9-20.2,0c-21.8,2.8-43.3,13.8-60.6,31.1
		c-10.3,10.3-18.4,22.2-23.9,34.7c-4.9-26.1-13.2-51-27.1-64.4c-3-2.9-7.7-2.8-10.6,0.2c-2.9,3-2.8,7.7,0.2,10.6
		c12,11.6,20.9,37.6,25.8,75.3c2.8,21.6,3.7,42,3.9,55.5c-11.8-1-22.9-4.3-34.6-7.7c-20.6-6-41.9-12.2-70.2-7.9
		c-30.4,4.6-54.6,16.1-72.1,34.1c-20.9,21.6-31.5,52-31.5,90.5c0,50.1,9.1,101,25.6,143.2c19,48.6,47.4,85.4,82.3,106.4
		c20.9,12.6,44.9,8.9,70.3,5c12.4-1.9,25.2-3.9,37.8-3.9s25.4,2,37.8,3.9c12.2,1.9,24.1,3.7,35.5,3.7c12.3,0,24-2.1,34.8-8.7
		c34.8-21,63.3-57.8,82.3-106.4c16.5-42.3,25.6-93.1,25.6-143.2C471.5,214.2,460.9,183.7,439.9,162.2z M342.2,15.5
		c3.4-0.4,6.9-0.6,10.4-0.5c0.1,3.5,0,6.9-0.5,10.4l0,0c-4.9,38.5-40.2,73.7-78.6,78.7l35.4-35.4c2.9-2.9,2.9-7.7,0-10.6
		c-2.9-2.9-7.7-2.9-10.6,0l-34.5,34.5C269.3,54.8,304.2,20.4,342.2,15.5z M431.9,390.5c-17.8,45.5-44.1,79.8-76,99
		c-16.2,9.8-36.6,6.6-60.3,3c-13-2-26.3-4.1-40.1-4.1s-27.1,2.1-40.1,4.1c-23.7,3.6-44.1,6.8-60.3-3c-32-19.3-58.3-53.5-76-99
		C63.3,349.9,54.5,301,54.5,252.7c0-34.5,9.2-61.4,27.3-80.1C97,157,118.4,147,145.5,142.9c25.1-3.8,44.7,1.9,63.7,7.5
		c14.5,4.2,29.5,8.6,46.3,8.6s31.8-4.4,46.3-8.6c19-5.6,38.7-11.3,63.7-7.5c27.1,4.1,48.5,14.1,63.6,29.7
		c18.1,18.7,27.3,45.6,27.3,80.1C456.5,301,447.8,349.9,431.9,390.5z"/>
	<path class="st0" d="M171.7,462.1c-21.7-13-40.7-35.8-55.2-65.9c-1.8-3.7-6.3-5.3-10-3.5c-3.7,1.8-5.3,6.3-3.5,10
		c15.7,32.7,36.8,57.6,61,72.2c1.2,0.7,2.5,1.1,3.9,1.1c2.5,0,5-1.3,6.4-3.6C176.3,468.9,175.2,464.2,171.7,462.1z"/>
	<path class="st0" d="M104,365.2c-2.5-7.5-4.8-15.4-6.8-23.5c-1-4-5.1-6.5-9.1-5.5c-4,1-6.5,5.1-5.5,9.1c2.1,8.4,4.5,16.7,7.1,24.6
		c1,3.1,4,5.1,7.1,5.1c0.8,0,1.6-0.1,2.4-0.4C103.1,373.3,105.3,369.1,104,365.2z"/>
	<path class="st0" d="M394.7,168.9c-5.3-2.5-11.1-4.6-17.3-6.2c-4-1.1-8.1,1.3-9.2,5.3s1.3,8.1,5.3,9.2c5.3,1.4,10.3,3.2,14.7,5.3
		c1,0.5,2.1,0.7,3.2,0.7c2.8,0,5.5-1.6,6.8-4.3C400.1,175.1,398.5,170.7,394.7,168.9z"/>
	<path class="st0" d="M421.4,189.6c-2.6-3.2-7.3-3.8-10.5-1.2c-3.2,2.6-3.8,7.3-1.2,10.5c10,12.6,14.9,30.2,14.9,53.8
		c0,8.7-0.3,17.5-0.9,26.3c-0.3,4.1,2.8,7.7,7,8c0.2,0,0.4,0,0.5,0c3.9,0,7.2-3,7.5-7c0.6-9.1,1-18.3,1-27.3
		C439.5,225.6,433.6,205,421.4,189.6z"/>
</g>
</svg>
