<?xml version="1.0" encoding="utf-8"?>
<!-- Generator: Adobe Illustrator 21.0.2, SVG Export Plug-In . SVG Version: 6.00 Build 0)  -->
<svg version="1.1" id="Capa_1" xmlns="http://www.w3.org/2000/svg" xmlns:xlink="http://www.w3.org/1999/xlink" x="0px" y="0px"
	 viewBox="0 0 511 511" style="enable-background:new 0 0 511 511;" xml:space="preserve">
<style type="text/css">
	.st0{fill:#FFFFFF;}
</style>
<path class="st0" d="M495.5,332H479c0-0.2,0-0.3,0-0.5v-224c0-8.5-7-15.5-15.5-15.5h-24c-8.5,0-15.5,7-15.5,15.5v0.5
	c-0.2,0-0.3,0-0.5,0h-40c-0.2,0-0.3,0-0.5,0V91.5c0-8.5-7-15.5-15.5-15.5h-16c-0.2,0-0.3,0-0.5,0v-8.5c0-8.5-7-15.5-15.5-15.5h-40
	C287,52,280,59,280,67.5V108c-0.2,0-0.3,0-0.5,0h-16c-0.2,0-0.3,0-0.5,0V91.5c0-8.5-7-15.5-15.5-15.5h-16C223,76,216,83,216,91.5V92
	c-0.2,0-0.3,0-0.5,0h-32c-0.2,0-0.3,0-0.5,0v-0.5c0-8.5-7-15.5-15.5-15.5h-48C111,76,104,83,104,91.5v8.5c-0.2,0-0.3,0-0.5,0h-16
	C79,100,72,107,72,115.5v8.5c-0.2,0-0.3,0-0.5,0h-24C39,124,32,131,32,139.5v192c0,0.2,0,0.3,0,0.5H15.5C7,332,0,339,0,347.5v16
	C0,372,7,379,15.5,379h19.4l37.9,75.9c1.3,2.6,3.9,4.1,6.7,4.1c0.6,0,1.2-0.1,1.7-0.2c3.4-0.8,5.8-3.8,5.8-7.3V379h337v72.5
	c0,3.5,2.4,6.5,5.8,7.3c0.6,0.1,1.2,0.2,1.7,0.2c2.8,0,5.4-1.6,6.7-4.1l37.9-75.9h19.4c8.5,0,15.5-7,15.5-15.5v-16
	C511,339,504,332,495.5,332z M439,123.5v-16c0-0.3,0.2-0.5,0.5-0.5h24c0.3,0,0.5,0.2,0.5,0.5v224c0,0.3-0.2,0.5-0.5,0.5h-24
	c-0.3,0-0.5-0.2-0.5-0.5V123.5z M383,123.5c0-0.3,0.2-0.5,0.5-0.5h40c0.3,0,0.5,0.2,0.5,0.5V140h-41V123.5z M383,155h41v145h-41V155
	z M383,315h41v16.5c0,0.3-0.2,0.5-0.5,0.5h-40c-0.3,0-0.5-0.2-0.5-0.5V315z M351,91.5c0-0.3,0.2-0.5,0.5-0.5h16
	c0.3,0,0.5,0.2,0.5,0.5v32v208c0,0.3-0.2,0.5-0.5,0.5h-16c-0.3,0-0.5-0.2-0.5-0.5V91.5z M295,123.5v-56c0-0.3,0.2-0.5,0.5-0.5h40
	c0.3,0,0.5,0.2,0.5,0.5v24v240c0,0.3-0.2,0.5-0.5,0.5h-40c-0.3,0-0.5-0.2-0.5-0.5V123.5z M263,123.5c0-0.3,0.2-0.5,0.5-0.5h16
	c0.3,0,0.5,0.2,0.5,0.5V140h-17V123.5z M263,155h17v145h-17V155z M263,315h17v16.5c0,0.3-0.2,0.5-0.5,0.5h-16
	c-0.3,0-0.5-0.2-0.5-0.5V315z M231,107.5v-16c0-0.3,0.2-0.5,0.5-0.5h16c0.3,0,0.5,0.2,0.5,0.5v32v208c0,0.3-0.2,0.5-0.5,0.5h-16
	c-0.3,0-0.5-0.2-0.5-0.5V107.5z M183,107.5c0-0.3,0.2-0.5,0.5-0.5h32c0.3,0,0.5,0.2,0.5,0.5v224c0,0.3-0.2,0.5-0.5,0.5h-32
	c-0.3,0-0.5-0.2-0.5-0.5V107.5z M119,91.5c0-0.3,0.2-0.5,0.5-0.5h48c0.3,0,0.5,0.2,0.5,0.5v16v0.5h-49V91.5z M119,123h49v177h-49
	V123z M119,315h49v16.5c0,0.3-0.2,0.5-0.5,0.5h-48c-0.3,0-0.5-0.2-0.5-0.5V315z M87,139.5v-24c0-0.3,0.2-0.5,0.5-0.5h16
	c0.3,0,0.5,0.2,0.5,0.5v216c0,0.3-0.2,0.5-0.5,0.5h-16c-0.3,0-0.5-0.2-0.5-0.5V139.5z M47,139.5c0-0.3,0.2-0.5,0.5-0.5h24
	c0.3,0,0.5,0.2,0.5,0.5v192c0,0.3-0.2,0.5-0.5,0.5h-24c-0.3,0-0.5-0.2-0.5-0.5V139.5z M72,419.7L51.6,379H72V419.7z M439,419.7V379
	h20.4L439,419.7z M496,363.5c0,0.3-0.2,0.5-0.5,0.5h-480c-0.3,0-0.5-0.2-0.5-0.5v-16c0-0.3,0.2-0.5,0.5-0.5h480
	c0.3,0,0.5,0.2,0.5,0.5V363.5z"/>
</svg>
