<?xml version="1.0" encoding="utf-8"?>
<!-- Generator: Adobe Illustrator 21.0.2, SVG Export Plug-In . SVG Version: 6.00 Build 0)  -->
<svg version="1.1" id="Capa_1" xmlns="http://www.w3.org/2000/svg" xmlns:xlink="http://www.w3.org/1999/xlink" x="0px" y="0px"
	 viewBox="0 0 511 511" style="enable-background:new 0 0 511 511;" xml:space="preserve">
<style type="text/css">
	.st0{fill:#FFFFFF;}
</style>
<path class="st0" d="M487.5,199c13,0,23.5-10.5,23.5-23.5S500.5,152,487.5,152h-8H479v-17h0.5h16c4.1,0,7.5-3.4,7.5-7.5
	s-3.4-7.5-7.5-7.5H495v-17h0.5c4.1,0,7.5-3.4,7.5-7.5s-3.4-7.5-7.5-7.5h-16H479V71h0.5c4.1,0,7.5-3.4,7.5-7.5s-3.4-7.5-7.5-7.5h-72
	c-13,0-23.5,10.5-23.5,23.5c0,11,7.6,20.3,17.9,22.8c-1.2,2.8-1.9,5.9-1.9,9.2s0.7,6.4,1.9,9.2c-10.2,2.5-17.9,11.8-17.9,22.8
	c0,3,0.6,5.9,1.6,8.5H367v-40.5c0-13-10.5-23.5-23.5-23.5h-176c-13,0-23.5,10.5-23.5,23.5V152h-39.6l6.5-39.3
	c0.4-2.2-0.3-4.4-1.7-6.1s-3.5-2.7-5.7-2.7H103V71.5c0-4.1-3.4-7.5-7.5-7.5S88,67.4,88,71.5V104h-9V87.5c0-4.1-3.4-7.5-7.5-7.5
	S64,83.4,64,87.5V104h-0.5c-2.2,0-4.3,1-5.7,2.7s-2,3.9-1.7,6.1l6.5,39.3H23.5C10.5,152,0,162.5,0,175.5S10.5,199,23.5,199H24v210.2
	c-9.3,3.1-16,11.9-16,22.3v16c0,4.1,3.4,7.5,7.5,7.5h32c4.1,0,7.5-3.4,7.5-7.5v-16c0-10.3-6.7-19.1-16-22.3V199h105v8.5
	c0,13,10.5,23.5,23.5,23.5h0.5v17h-40.5c-4.1,0-7.5,3.4-7.5,7.5v16c0,13,10.5,23.5,23.5,23.5h0.5v114.2c-9.3,3.1-16,11.9-16,22.3v16
	c0,4.1,3.4,7.5,7.5,7.5h32c4.1,0,7.5-3.4,7.5-7.5v-16c0-10.3-6.7-19.1-16-22.3V367h193v42.2c-9.3,3.1-16,11.9-16,22.3v16
	c0,4.1,3.4,7.5,7.5,7.5h32c4.1,0,7.5-3.4,7.5-7.5v-16c0-10.3-6.7-19.1-16-22.3V295h0.5c13,0,23.5-10.5,23.5-23.5v-16
	c0-4.1-3.4-7.5-7.5-7.5H343v-17h0.5c13,0,23.5-10.5,23.5-23.5V199h105v210.2c-9.3,3.1-16,11.9-16,22.3v16c0,4.1,3.4,7.5,7.5,7.5h32
	c4.1,0,7.5-3.4,7.5-7.5v-16c0-10.3-6.7-19.1-16-22.3V199H487.5z M40,440H23v-8.5c0-4.7,3.8-8.5,8.5-8.5s8.5,3.8,8.5,8.5V440z
	 M488,440h-17v-8.5c0-4.7,3.8-8.5,8.5-8.5s8.5,3.8,8.5,8.5V440z M480,103v17h-0.5h-56c-4.7,0-8.5-3.8-8.5-8.5s3.8-8.5,8.5-8.5h56
	H480z M399,79.5c0-4.7,3.8-8.5,8.5-8.5H464v17h-40.5h-16C402.8,88,399,84.2,399,79.5z M399,143.5c0-4.7,3.8-8.5,8.5-8.5h16H464v17
	h-56.5C402.8,152,399,148.2,399,143.5z M159,111.5c0-4.7,3.8-8.5,8.5-8.5h176c4.7,0,8.5,3.8,8.5,8.5V152H159V111.5z M72.4,119h22.3
	l-5.5,33H77.9L72.4,119z M15,175.5c0-4.7,3.8-8.5,8.5-8.5h464c4.7,0,8.5,3.8,8.5,8.5s-3.8,8.5-8.5,8.5h-464
	C18.8,184,15,180.2,15,175.5z M160,440h-17v-8.5c0-4.7,3.8-8.5,8.5-8.5s8.5,3.8,8.5,8.5V440z M368,440h-17v-8.5
	c0-4.7,3.8-8.5,8.5-8.5s8.5,3.8,8.5,8.5V440z M352,352H159v-57h193V352z M376,271.5c0,4.7-3.8,8.5-8.5,8.5h-224
	c-4.7,0-8.5-3.8-8.5-8.5V263h241V271.5z M328,248H183v-17h145V248z M352,207.5c0,4.7-3.8,8.5-8.5,8.5h-176c-4.7,0-8.5-3.8-8.5-8.5
	V199h193V207.5z"/>
</svg>
