<?xml version="1.0" encoding="utf-8"?>
<!-- Generator: Adobe Illustrator 21.0.2, SVG Export Plug-In . SVG Version: 6.00 Build 0)  -->
<svg version="1.1" id="Capa_1" xmlns="http://www.w3.org/2000/svg" xmlns:xlink="http://www.w3.org/1999/xlink" x="0px" y="0px"
	 viewBox="0 0 511 511" style="enable-background:new 0 0 511 511;" xml:space="preserve">
<style type="text/css">
	.st0{fill:#FFFFFF;}
</style>
<path class="st0" d="M303.5,48H287v-0.5C287,21.3,265.7,0,239.5,0S192,21.3,192,47.5V48h-0.5c-4.1,0-7.5,3.4-7.5,7.5v136
	c0,0.1,0,0.3,0,0.4l7.3,136.7c0.3,6.7,3.4,12.7,8.2,16.7L184.1,422c-0.3,1.4-0.1,2.9,0.4,4.3l32,80c1.1,2.8,3.9,4.7,7,4.7h16h16
	c3.1,0,5.8-1.9,7-4.7l32-80c0.5-1.4,0.7-2.8,0.4-4.3l-15.3-76.7c4.8-4.1,7.9-10,8.2-16.7l7.3-136.8c0-0.1,0-0.3,0-0.4V63h8.5
	c4.7,0,8.5,3.8,8.5,8.5v144c0,4.1,3.4,7.5,7.5,7.5s7.5-3.4,7.5-7.5v-144C327,58.5,316.5,48,303.5,48z M207,47.5
	c0-17.9,14.6-32.5,32.5-32.5S272,29.6,272,47.5V48h-65V47.5z M272.7,327.9c-0.2,4.5-3.9,8.1-8.5,8.1h-49.5c-4.5,0-8.3-3.6-8.5-8.1
	L199.4,199h80.2L272.7,327.9z M279.7,422.8L250.4,496H247v-58.9c4.8-2.6,8-7.7,8-13.6c0-8.5-7-15.5-15.5-15.5s-15.5,7-15.5,15.5
	c0,5.8,3.2,10.9,8,13.6V496h-3.4l-29.3-73.2l14.4-71.8c0.4,0,0.7,0,1.1,0h49.5c0.4,0,0.7,0,1.1,0L279.7,422.8z M280,184h-81V63h81
	V184z"/>
</svg>
