<?xml version="1.0" encoding="utf-8"?>
<!-- Generator: Adobe Illustrator 21.0.2, SVG Export Plug-In . SVG Version: 6.00 Build 0)  -->
<svg version="1.1" id="Capa_1" xmlns="http://www.w3.org/2000/svg" xmlns:xlink="http://www.w3.org/1999/xlink" x="0px" y="0px"
	 viewBox="0 0 511 511" style="enable-background:new 0 0 511 511;" xml:space="preserve">
<style type="text/css">
	.st0{fill:#FFFFFF;}
</style>
<g>
	<path class="st0" d="M504.4,3.5C503,1.3,500.6,0,498,0h-129c-2.9,0-5.5,1.7-6.8,4.3l-90.8,188.9c-6.2-0.7-12.4-1.1-18.8-1.1
		s-12.6,0.4-18.8,1.1L143.2,4.3C142,1.7,139.3,0,136.5,0H7.5c-2.6,0-5,1.3-6.3,3.5c-1.4,2.2-1.5,4.9-0.4,7.2l120.5,250.6
		c-17.6,25.7-28,56.7-28,90.1c0,87.9,71.6,159.5,159.5,159.5s159.5-71.6,159.5-159.5c0-33.4-10.3-64.5-28-90.1L504.8,10.8
		C505.9,8.4,505.8,5.7,504.4,3.5z M373.8,15h47l-93.9,195.3c-12.5-6.6-25.9-11.5-40-14.6L373.8,15z M218.6,195.7
		c-15.3,3.4-29.8,8.9-43.2,16.4L80.7,15h51L218.6,195.7z M19.4,15h44.6l98.6,205c-11.6,8-22,17.4-31.1,28.1L19.4,15z M252.8,496
		c-79.7,0-144.5-64.8-144.5-144.5S173.1,207,252.8,207s144.5,64.8,144.5,144.5S332.5,496,252.8,496z M374.1,248.1
		c-9.9-11.6-21.4-21.7-34.2-30.1l97.6-203h48.6L374.1,248.1z"/>
	<path class="st0" d="M301.1,372l25.9-25.2c4.3-4.1,5.8-10.2,3.9-15.9s-6.6-9.7-12.5-10.5l-35.8-5.2l-16-32.4
		c-2.6-5.3-8-8.6-13.9-8.6s-11.3,3.3-13.9,8.6l-16,32.4l-35.8,5.2c-5.9,0.9-10.7,4.9-12.5,10.5c-1.8,5.7-0.3,11.7,3.9,15.9
		l25.9,25.2l-6.1,35.6c-1,5.9,1.4,11.7,6.2,15.2c4.8,3.5,11.1,3.9,16.3,1.2l32-16.8l32,16.8c2.3,1.2,4.8,1.8,7.2,1.8
		c3.2,0,6.4-1,9.1-3c4.8-3.5,7.2-9.3,6.2-15.2L301.1,372z M285.7,370.6l6.8,39.5c0,0.1,0.1,0.3-0.2,0.5c-0.3,0.2-0.4,0.1-0.5,0
		L256.3,392c-1.1-0.6-2.3-0.9-3.5-0.9s-2.4,0.3-3.5,0.9l-35.5,18.7c-0.1,0.1-0.3,0.1-0.5,0c-0.3-0.2-0.2-0.3-0.2-0.5l6.8-39.5
		c0.4-2.4-0.4-4.9-2.2-6.6L189,336c-0.1-0.1-0.2-0.2-0.1-0.5c0.1-0.3,0.3-0.3,0.4-0.3l39.7-5.8c2.4-0.4,4.6-1.9,5.6-4.1l17.7-35.9
		c0.1-0.1,0.1-0.3,0.4-0.3s0.4,0.2,0.4,0.3l17.7,35.9c1.1,2.2,3.2,3.7,5.6,4.1l39.7,5.8c0.1,0,0.3,0,0.4,0.3c0.1,0.3,0,0.4-0.1,0.5
		l-28.7,28C286.1,365.7,285.3,368.2,285.7,370.6z"/>
	<path class="st0" d="M138.1,356.8c1.4-1.4,2.2-3.3,2.2-5.3s-0.8-3.9-2.2-5.3c-1.4-1.4-3.3-2.2-5.3-2.2c-2,0-3.9,0.8-5.3,2.2
		c-1.4,1.4-2.2,3.3-2.2,5.3s0.8,3.9,2.2,5.3c1.4,1.4,3.3,2.2,5.3,2.2C134.7,359,136.7,358.2,138.1,356.8z"/>
	<path class="st0" d="M367.5,346.2c-1.4,1.4-2.2,3.3-2.2,5.3s0.8,3.9,2.2,5.3c1.4,1.4,3.3,2.2,5.3,2.2c2,0,3.9-0.8,5.3-2.2
		c1.4-1.4,2.2-3.3,2.2-5.3s-0.8-3.9-2.2-5.3c-1.4-1.4-3.3-2.2-5.3-2.2C370.8,344,368.9,344.8,367.5,346.2z"/>
	<path class="st0" d="M252.8,464c-2,0-3.9,0.8-5.3,2.2c-1.4,1.4-2.2,3.3-2.2,5.3s0.8,3.9,2.2,5.3c1.4,1.4,3.3,2.2,5.3,2.2
		c2,0,3.9-0.8,5.3-2.2c1.4-1.4,2.2-3.3,2.2-5.3s-0.8-3.9-2.2-5.3C256.7,464.8,254.7,464,252.8,464z"/>
	<path class="st0" d="M252.8,239c2,0,3.9-0.8,5.3-2.2c1.4-1.4,2.2-3.3,2.2-5.3c0-2-0.8-3.9-2.2-5.3c-1.4-1.4-3.3-2.2-5.3-2.2
		c-2,0-3.9,0.8-5.3,2.2c-1.4,1.4-2.2,3.3-2.2,5.3s0.8,3.9,2.2,5.3C248.9,238.2,250.8,239,252.8,239z"/>
	<path class="st0" d="M167.9,274.1c2,0,3.9-0.8,5.3-2.2c1.4-1.4,2.2-3.3,2.2-5.3c0-2-0.8-3.9-2.2-5.3c-1.4-1.4-3.3-2.2-5.3-2.2
		c-2,0-3.9,0.8-5.3,2.2c-1.4,1.4-2.2,3.3-2.2,5.3c0,2,0.8,3.9,2.2,5.3C164,273.4,165.9,274.1,167.9,274.1z"/>
	<path class="st0" d="M337.6,428.9c-2,0-3.9,0.8-5.3,2.2c-1.4,1.4-2.2,3.3-2.2,5.3c0,2,0.8,3.9,2.2,5.3c1.4,1.4,3.3,2.2,5.3,2.2
		s3.9-0.8,5.3-2.2c1.4-1.4,2.2-3.3,2.2-5.3c0-2-0.8-3.9-2.2-5.3C341.5,429.6,339.6,428.9,337.6,428.9z"/>
	<path class="st0" d="M167.9,428.9c-2,0-3.9,0.8-5.3,2.2c-1.4,1.4-2.2,3.3-2.2,5.3c0,2,0.8,3.9,2.2,5.3c1.4,1.4,3.3,2.2,5.3,2.2
		c2,0,3.9-0.8,5.3-2.2c1.4-1.4,2.2-3.3,2.2-5.3c0-2-0.8-3.9-2.2-5.3C171.8,429.6,169.9,428.9,167.9,428.9z"/>
	<path class="st0" d="M337.6,274.1c2,0,3.9-0.8,5.3-2.2c1.4-1.4,2.2-3.3,2.2-5.3c0-2-0.8-3.9-2.2-5.3c-1.4-1.4-3.3-2.2-5.3-2.2
		s-3.9,0.8-5.3,2.2c-1.4,1.4-2.2,3.3-2.2,5.3c0,2,0.8,3.9,2.2,5.3C333.7,273.4,335.7,274.1,337.6,274.1z"/>
	<path class="st0" d="M149.4,397.4c0-2-0.8-3.9-2.2-5.3c-1.4-1.4-3.3-2.2-5.3-2.2c-2,0-3.9,0.8-5.3,2.2c-1.4,1.4-2.2,3.3-2.2,5.3
		c0,2,0.8,3.9,2.2,5.3c1.4,1.4,3.3,2.2,5.3,2.2c2,0,3.9-0.8,5.3-2.2C148.6,401.3,149.4,399.4,149.4,397.4z"/>
	<path class="st0" d="M356.1,305.6c0,2,0.8,3.9,2.2,5.3s3.3,2.2,5.3,2.2c2,0,3.9-0.8,5.3-2.2c1.4-1.4,2.2-3.3,2.2-5.3
		c0-2-0.8-3.9-2.2-5.3c-1.4-1.4-3.3-2.2-5.3-2.2c-2,0-3.9,0.8-5.3,2.2C356.9,301.7,356.1,303.6,356.1,305.6z"/>
	<path class="st0" d="M298.7,454.9c-2,0-3.9,0.8-5.3,2.2c-1.4,1.4-2.2,3.3-2.2,5.3c0,2,0.8,3.9,2.2,5.3c1.4,1.4,3.3,2.2,5.3,2.2
		c2,0,3.9-0.8,5.3-2.2c1.4-1.4,2.2-3.3,2.2-5.3c0-2-0.8-3.9-2.2-5.3C302.6,455.7,300.7,454.9,298.7,454.9z"/>
	<path class="st0" d="M206.9,248.1c2,0,3.9-0.8,5.3-2.2c1.4-1.4,2.2-3.3,2.2-5.3c0-2-0.8-3.9-2.2-5.3c-1.4-1.4-3.3-2.2-5.3-2.2
		c-2,0-3.9,0.8-5.3,2.2c-1.4,1.4-2.2,3.3-2.2,5.3c0,2,0.8,3.9,2.2,5.3C202.9,247.3,204.9,248.1,206.9,248.1z"/>
	<path class="st0" d="M141.9,313.1c2,0,3.9-0.8,5.3-2.2c1.4-1.4,2.2-3.3,2.2-5.3c0-2-0.8-3.9-2.2-5.3c-1.4-1.4-3.3-2.2-5.3-2.2
		c-2,0-3.9,0.8-5.3,2.2c-1.4,1.4-2.2,3.3-2.2,5.3c0,2,0.8,3.9,2.2,5.3C138,312.3,139.9,313.1,141.9,313.1z"/>
	<path class="st0" d="M363.6,389.9c-2,0-3.9,0.8-5.3,2.2c-1.4,1.4-2.2,3.3-2.2,5.3c0,2,0.8,3.9,2.2,5.3c1.4,1.4,3.3,2.2,5.3,2.2
		c2,0,3.9-0.8,5.3-2.2c1.4-1.4,2.2-3.3,2.2-5.3c0-2-0.8-3.9-2.2-5.3C367.5,390.7,365.6,389.9,363.6,389.9z"/>
	<path class="st0" d="M206.8,454.9c-2,0-3.9,0.8-5.3,2.2c-1.4,1.4-2.2,3.3-2.2,5.3c0,2,0.8,3.9,2.2,5.3c1.4,1.4,3.3,2.2,5.3,2.2
		c2,0,3.9-0.8,5.3-2.2c1.4-1.4,2.2-3.3,2.2-5.3c0-2-0.8-3.9-2.2-5.3C210.8,455.7,208.8,454.9,206.8,454.9z"/>
	<path class="st0" d="M298.7,248.1c2,0,3.9-0.8,5.3-2.2c1.4-1.4,2.2-3.3,2.2-5.3c0-2-0.8-3.9-2.2-5.3c-1.4-1.4-3.3-2.2-5.3-2.2
		s-3.9,0.8-5.3,2.2c-1.4,1.4-2.2,3.3-2.2,5.3c0,2,0.8,3.9,2.2,5.3C294.8,247.3,296.7,248.1,298.7,248.1z"/>
	<path class="st0" d="M140.5,380.7c1.4-1.4,2.2-3.3,2.2-5.3c0-2-0.8-3.9-2.2-5.3c-1.4-1.4-3.3-2.2-5.3-2.2c-2,0-3.9,0.8-5.3,2.2
		c-1.4,1.4-2.2,3.3-2.2,5.3c0,2,0.8,3.9,2.2,5.3c1.4,1.4,3.3,2.2,5.3,2.2C137.2,382.9,139.1,382.1,140.5,380.7z"/>
	<path class="st0" d="M365.1,322.3c-1.4,1.4-2.2,3.3-2.2,5.3c0,2,0.8,3.9,2.2,5.3c1.4,1.4,3.3,2.2,5.3,2.2s3.9-0.8,5.3-2.2
		c1.4-1.4,2.2-3.3,2.2-5.3c0-2-0.8-3.9-2.2-5.3c-1.4-1.4-3.3-2.2-5.3-2.2C368.4,320.1,366.5,320.9,365.1,322.3z"/>
	<path class="st0" d="M276.7,461.6c-2,0-3.9,0.8-5.3,2.2c-1.4,1.4-2.2,3.3-2.2,5.3s0.8,3.9,2.2,5.3c1.4,1.4,3.3,2.2,5.3,2.2
		s3.9-0.8,5.3-2.2c1.4-1.4,2.2-3.3,2.2-5.3s-0.8-3.9-2.2-5.3C280.6,462.4,278.7,461.6,276.7,461.6z"/>
	<path class="st0" d="M228.8,241.4c2,0,3.9-0.8,5.3-2.2c1.4-1.4,2.2-3.3,2.2-5.3s-0.8-3.9-2.2-5.3c-1.4-1.4-3.3-2.2-5.3-2.2
		c-2,0-3.9,0.8-5.3,2.2c-1.4,1.4-2.2,3.3-2.2,5.3s0.8,3.9,2.2,5.3C224.9,240.6,226.9,241.4,228.8,241.4z"/>
	<path class="st0" d="M152.7,292.8c2,0,3.9-0.8,5.3-2.2c1.4-1.4,2.2-3.3,2.2-5.3c0-2-0.8-3.9-2.2-5.3c-1.4-1.4-3.3-2.2-5.3-2.2
		c-2,0-3.9,0.8-5.3,2.2c-1.4,1.4-2.2,3.3-2.2,5.3c0,2,0.8,3.9,2.2,5.3C148.8,292,150.7,292.8,152.7,292.8z"/>
	<path class="st0" d="M352.8,410.2c-2,0-3.9,0.8-5.3,2.2s-2.2,3.3-2.2,5.3c0,2,0.8,3.9,2.2,5.3c1.4,1.4,3.3,2.2,5.3,2.2
		c2,0,3.9-0.8,5.3-2.2c1.4-1.4,2.2-3.3,2.2-5.3c0-2-0.8-3.9-2.2-5.3C356.7,411,354.8,410.2,352.8,410.2z"/>
	<path class="st0" d="M186.5,444.1c-2,0-3.9,0.8-5.3,2.2c-1.4,1.4-2.2,3.3-2.2,5.3c0,2,0.8,3.9,2.2,5.3c1.4,1.4,3.3,2.2,5.3,2.2
		c2,0,3.9-0.8,5.3-2.2c1.4-1.4,2.2-3.3,2.2-5.3s-0.8-3.9-2.2-5.3C190.4,444.9,188.5,444.1,186.5,444.1z"/>
	<path class="st0" d="M319,258.9c2,0,3.9-0.8,5.3-2.2c1.4-1.4,2.2-3.3,2.2-5.3c0-2-0.8-3.9-2.2-5.3c-1.4-1.4-3.3-2.2-5.3-2.2
		s-3.9,0.8-5.3,2.2c-1.4,1.4-2.2,3.3-2.2,5.3c0,2,0.8,3.9,2.2,5.3C315.1,258.1,317,258.9,319,258.9z"/>
	<path class="st0" d="M158.6,413.3c-1.4-1.4-3.3-2.2-5.3-2.2c-2,0-3.9,0.8-5.3,2.2c-1.4,1.4-2.2,3.3-2.2,5.3c0,2,0.8,3.9,2.2,5.3
		c1.4,1.4,3.3,2.2,5.3,2.2c2,0,3.9-0.8,5.3-2.2c1.4-1.4,2.2-3.3,2.2-5.3C160.8,416.6,160,414.7,158.6,413.3z"/>
	<path class="st0" d="M347,279.1c-1.4,1.4-2.2,3.3-2.2,5.3c0,2,0.8,3.9,2.2,5.3c1.4,1.4,3.3,2.2,5.3,2.2c2,0,3.9-0.8,5.3-2.2
		c1.4-1.4,2.2-3.3,2.2-5.3c0-2-0.8-3.9-2.2-5.3c-1.4-1.4-3.3-2.2-5.3-2.2C350.3,276.9,348.4,277.7,347,279.1z"/>
	<path class="st0" d="M319.9,443.5c-2,0-3.9,0.8-5.3,2.2c-1.4,1.4-2.2,3.3-2.2,5.3c0,2,0.8,3.9,2.2,5.3c1.4,1.4,3.3,2.2,5.3,2.2
		c2,0,3.9-0.8,5.3-2.2c1.4-1.4,2.2-3.3,2.2-5.3c0-2-0.8-3.9-2.2-5.3C323.8,444.3,321.8,443.5,319.9,443.5z"/>
	<path class="st0" d="M185.7,259.5c2,0,3.9-0.8,5.3-2.2c1.4-1.4,2.2-3.3,2.2-5.3c0-2-0.8-3.9-2.2-5.3c-1.4-1.4-3.3-2.2-5.3-2.2
		c-2,0-3.9,0.8-5.3,2.2c-1.4,1.4-2.2,3.3-2.2,5.3c0,2,0.8,3.9,2.2,5.3C181.8,258.7,183.7,259.5,185.7,259.5z"/>
	<path class="st0" d="M135,336.1c2,0,3.9-0.8,5.3-2.2c1.4-1.4,2.2-3.3,2.2-5.3c0-2-0.8-3.9-2.2-5.3c-1.4-1.4-3.3-2.2-5.3-2.2
		c-2,0-3.9,0.8-5.3,2.2c-1.4,1.4-2.2,3.3-2.2,5.3c0,2,0.8,3.9,2.2,5.3C131.1,335.3,133,336.1,135,336.1z"/>
	<path class="st0" d="M370.6,366.9c-2,0-3.9,0.8-5.3,2.2c-1.4,1.4-2.2,3.3-2.2,5.3c0,2,0.8,3.9,2.2,5.3s3.3,2.2,5.3,2.2
		c2,0,3.9-0.8,5.3-2.2c1.4-1.4,2.2-3.3,2.2-5.3c0-2-0.8-3.9-2.2-5.3C374.5,367.7,372.5,366.9,370.6,366.9z"/>
	<path class="st0" d="M229.9,461.8c-2,0-3.9,0.8-5.3,2.2c-1.4,1.4-2.2,3.3-2.2,5.3c0,2,0.8,3.9,2.2,5.3c1.4,1.4,3.3,2.2,5.3,2.2
		c2,0,3.9-0.8,5.3-2.2c1.4-1.4,2.2-3.3,2.2-5.3c0-2-0.8-3.9-2.2-5.3C233.8,462.6,231.9,461.8,229.9,461.8z"/>
	<path class="st0" d="M275.7,241.2c2,0,3.9-0.8,5.3-2.2c1.4-1.4,2.2-3.3,2.2-5.3c0-2-0.8-3.9-2.2-5.3c-1.4-1.4-3.3-2.2-5.3-2.2
		c-2,0-3.9,0.8-5.3,2.2c-1.4,1.4-2.2,3.3-2.2,5.3c0,2,0.8,3.9,2.2,5.3C271.8,240.4,273.7,241.2,275.7,241.2z"/>
</g>
</svg>
