<?xml version="1.0" encoding="utf-8"?>
<!-- Generator: Adobe Illustrator 21.0.2, SVG Export Plug-In . SVG Version: 6.00 Build 0)  -->
<svg version="1.1" id="Capa_1" xmlns="http://www.w3.org/2000/svg" xmlns:xlink="http://www.w3.org/1999/xlink" x="0px" y="0px"
	 viewBox="0 0 511 511" style="enable-background:new 0 0 511 511;" xml:space="preserve">
<style type="text/css">
	.st0{fill:#FFFFFF;}
</style>
<g>
	<path class="st0" d="M199.5,144c-13,0-23.5,10.5-23.5,23.5v32c0,13,10.5,23.5,23.5,23.5s23.5-10.5,23.5-23.5v-32
		C223,154.5,212.5,144,199.5,144z M208,199.5c0,4.7-3.8,8.5-8.5,8.5s-8.5-3.8-8.5-8.5v-32c0-4.7,3.8-8.5,8.5-8.5s8.5,3.8,8.5,8.5
		V199.5z"/>
	<path class="st0" d="M447.5,96h-16C409.2,96,391,77.8,391,55.5C391,24.9,366.1,0,335.5,0h-56c-45.7,0-83.4,35.3-87.2,80h-48.8
		C95.3,80,56,119.3,56,167.5v200C56,446.6,120.4,511,199.5,511S343,446.6,343,367.5v-200c0-48.2-39.3-87.5-87.5-87.5h-48.1
		c3.8-36.5,34.7-65,72.1-65h56c22.3,0,40.5,18.2,40.5,40.5c0,30.6,24.9,55.5,55.5,55.5h16c4.1,0,7.5-3.4,7.5-7.5S451.6,96,447.5,96z
		 M328,167.5v200c0,70.9-57.6,128.5-128.5,128.5S71,438.4,71,367.5v-200c0-21.8,9.7-41.4,25-54.7v118.7c0,30.6,24.9,55.5,55.5,55.5
		h96c30.6,0,55.5-24.9,55.5-55.5V112.8C318.3,126.1,328,145.7,328,167.5z M288,102.7c0,0.2,0,0.5,0,0.8v128
		c0,22.3-18.2,40.5-40.5,40.5H207v-24.5c0-4.1-3.4-7.5-7.5-7.5s-7.5,3.4-7.5,7.5V272h-40.5c-22.3,0-40.5-18.2-40.5-40.5v-128
		c0-0.3,0-0.5,0-0.8c9.8-4.9,20.8-7.7,32.5-7.7H192v24.5c0,4.1,3.4,7.5,7.5,7.5s7.5-3.4,7.5-7.5V95h48.5
		C267.2,95,278.2,97.8,288,102.7z"/>
</g>
</svg>
